<svg xmlns="http://www.w3.org/2000/svg" viewBox="0 0 24.06 22.2"><defs><style>.cls-1,.cls-2{fill:none;stroke-miterlimit:10;}.cls-1{stroke:#e9e8e7;stroke-width:1.7px;}.cls-2{stroke:#4050d2;stroke-linecap:round;}</style></defs><g id="Layer_2" data-name="Layer 2"><g id="Layer_1-2" data-name="Layer 1"><path class="cls-1" d="M16,5.23a6,6,0,0,1,6.54,2.64c1.54,2.69.1,5.85-1.56,7.36-1.41,1.27-3.19,1.38-6.68,1.54-5.58.26-8.37.39-10.6-1.53A8.41,8.41,0,0,1,.94,7.77,8.19,8.19,0,0,1,7,1.05,8.23,8.23,0,0,1,16,5.23Z"/><line class="cls-2" x1="14.87" y1="9.81" x2="14.87" y2="21.7"/><line class="cls-2" x1="12.52" y1="9.81" x2="12.52" y2="18.13"/><line class="cls-2" x1="10.17" y1="9.81" x2="10.17" y2="17.34"/><line class="cls-2" x1="7.87" y1="9.81" x2="7.87" y2="16.07"/></g></g></svg>