<svg xmlns="http://www.w3.org/2000/svg" xmlns:xlink="http://www.w3.org/1999/xlink" viewBox="0 0 26.73 27.42"><defs><style>.cls-1,.cls-3{fill:none;stroke-miterlimit:10;}.cls-1{stroke:#e9e8e7;stroke-width:1.7px;}.cls-2{fill:url(#radial-gradient);}.cls-3{stroke:#4050d2;stroke-linecap:round;}</style><radialGradient id="radial-gradient" cx="14.69" cy="15.03" r="9.19" gradientUnits="userSpaceOnUse"><stop offset="0.59" stop-color="#ffde4a"/><stop offset="0.78" stop-color="#fcc63b" stop-opacity="0.9"/><stop offset="0.92" stop-color="#f7941d" stop-opacity="0.8"/><stop offset="1" stop-color="#f7941d" stop-opacity="0.8"/></radialGradient></defs><g id="Layer_2" data-name="Layer 2"><g id="Layer_1-2" data-name="Layer 1"><path class="cls-1" d="M6.92,4.54A5,5,0,0,0,1.4,6.77C.11,9,1.32,11.7,2.72,13c1.19,1.08,2.69,1.17,5.63,1.31,4.71.21,7.06.32,8.94-1.3a7.09,7.09,0,0,0,2.34-6.29A6.9,6.9,0,0,0,14.51,1,6.93,6.93,0,0,0,6.92,4.54Z"/><circle class="cls-2" cx="14.69" cy="15.03" r="9.19"/><line class="cls-3" x1="26.23" y1="15.03" x2="26.23" y2="26.92"/><line class="cls-3" x1="23.88" y1="15.03" x2="23.88" y2="23.35"/><line class="cls-3" x1="21.54" y1="15.03" x2="21.54" y2="22.57"/><line class="cls-3" x1="19.24" y1="15.03" x2="19.24" y2="21.29"/></g></g></svg>